<svg width="23" height="18" viewBox="0 0 23 18" fill="none" xmlns="http://www.w3.org/2000/svg">
<path d="M22.5634 2.95114C22.7744 2.70664 22.5114 2.35908 22.2 2.44483C21.8509 2.54098 21.5737 1.93139 21.7967 1.64616C21.8953 1.52007 21.9858 1.38787 22.0677 1.24958C22.2598 0.925322 21.8809 0.61442 21.5322 0.757448C21.0516 0.954582 20.5353 1.10677 19.9833 1.24782C19.6373 1.33625 19.2758 1.22893 18.9888 1.01632C18.1492 0.3942 17.0484 0 15.9476 0C15.0074 0 14.1363 0.264108 13.4026 0.710761C11.0012 2.17279 8.40338 5.41455 5.87289 4.18939C4.79799 3.66897 3.79795 3.01203 2.89209 2.24166C2.12262 1.58728 0.895947 1.71955 0.809657 2.72596C0.71458 3.83484 1.06293 4.95197 1.76755 5.86093C2.05747 6.23494 1.84526 6.77266 1.39798 6.61815C1.07939 6.50811 0.727492 6.73229 0.784232 7.06454C1.0081 8.37543 1.84936 9.56999 3.03467 10.3126C3.35627 10.5141 3.29277 11.1382 2.9133 11.134C2.64371 11.1311 2.4248 11.3895 2.5415 11.6325C2.89631 12.3715 3.45546 13.0127 4.15955 13.4769C4.89147 13.9594 5.26038 15.1719 4.42791 15.4468C3.49841 15.7536 3.06321 17.3385 4.01135 17.5817C5.05693 17.8499 6.13982 18 7.2489 18C15.8457 18 20.7436 11.3272 20.744 4.97686C20.744 4.64253 20.9208 4.33337 21.1998 4.14915C21.7078 3.81371 22.1694 3.40765 22.5634 2.95114Z" fill="white"/>
</svg>
