<svg width="26" height="18" viewBox="0 0 26 18" fill="none" xmlns="http://www.w3.org/2000/svg">
<path d="M17.2589 16.2589C17.9018 17.0893 18.6786 18 18.6786 18C23.3928 17.8393 25.2142 14.7322 25.2142 14.7322C25.2142 7.82149 22.1339 2.25009 22.1339 2.25009C19.0536 -0.0534652 16.1072 0.00010582 16.1072 0.00010582L15.8125 0.348318C19.4553 1.47331 21.1428 3.08044 21.1428 3.08044C18.9196 1.84831 16.75 1.23224 14.7143 1.01796C13.1607 0.830458 11.6875 0.884029 10.375 1.04474C10.2411 1.04474 10.134 1.07153 10 1.09831C9.25005 1.15188 7.42863 1.44653 5.15186 2.43759C4.34829 2.81259 3.89294 3.05366 3.89294 3.05366C3.89294 3.05366 5.66079 1.36617 9.51791 0.241176L9.30362 0.00010582C9.30362 0.00010582 6.35721 -0.0534652 3.27687 2.25009C3.27687 2.25009 0.196533 7.84827 0.196533 14.7322C0.196533 14.7322 1.99117 17.8393 6.73221 18C6.73221 18 7.53578 17.0357 8.17863 16.2322C5.4465 15.4286 4.42865 13.7143 4.42865 13.7143C4.42865 13.7143 4.64294 13.8482 5.01793 14.0625C5.04472 14.0893 5.07151 14.1161 5.09829 14.1161C5.17865 14.1697 5.23222 14.1965 5.28579 14.2232C5.8215 14.5179 6.35721 14.7589 6.83935 14.9464C7.72328 15.2947 8.76791 15.6429 10 15.8572C11.6072 16.1518 13.4822 16.2589 15.5447 15.8839C16.5625 15.7232 17.6071 15.4286 18.6786 14.9732C19.4286 14.7054 20.2589 14.2768 21.1428 13.7143C21.1428 13.7143 20.0714 15.4822 17.2589 16.2589ZM8.71434 12.75C7.50899 12.75 6.51792 11.6786 6.51792 10.3661C6.51792 9.05362 7.48221 7.9822 8.71434 7.9822C9.94648 7.9822 10.9108 9.05362 10.884 10.3661C10.884 11.6786 9.91969 12.75 8.71434 12.75ZM16.5357 12.75C15.3304 12.75 14.3393 11.6786 14.3393 10.3661C14.3393 9.05362 15.3036 7.9822 16.5357 7.9822C17.7679 7.9822 18.7321 9.05362 18.7321 10.3661C18.7054 11.6786 17.7411 12.75 16.5357 12.75Z" fill="white"/>
</svg>
